<svg width="50" height="50" viewBox="0 0 50 50" fill="none" xmlns="http://www.w3.org/2000/svg">
<path d="M28.125 10.6738V34.375C28.125 36.1035 26.7285 37.5 25 37.5C23.2715 37.5 21.875 36.1035 21.875 34.375V10.6738L14.707 17.8418C13.4863 19.0625 11.5039 19.0625 10.2832 17.8418C9.0625 16.6211 9.0625 14.6387 10.2832 13.418L22.7832 0.917969C24.0039 -0.302734 25.9863 -0.302734 27.207 0.917969L39.707 13.418C40.9277 14.6387 40.9277 16.6211 39.707 17.8418C38.4863 19.0625 36.5039 19.0625 35.2832 17.8418L28.125 10.6738ZM6.25 34.375H18.75C18.75 37.8223 21.5527 40.625 25 40.625C28.4473 40.625 31.25 37.8223 31.25 34.375H43.75C47.1973 34.375 50 37.1777 50 40.625V43.75C50 47.1973 47.1973 50 43.75 50H6.25C2.80273 50 0 47.1973 0 43.75V40.625C0 37.1777 2.80273 34.375 6.25 34.375ZM42.1875 44.5313C42.8091 44.5313 43.4052 44.2843 43.8448 43.8448C44.2843 43.4052 44.5312 42.8091 44.5312 42.1875C44.5312 41.5659 44.2843 40.9698 43.8448 40.5302C43.4052 40.0907 42.8091 39.8438 42.1875 39.8438C41.5659 39.8438 40.9698 40.0907 40.5302 40.5302C40.0907 40.9698 39.8438 41.5659 39.8438 42.1875C39.8438 42.8091 40.0907 43.4052 40.5302 43.8448C40.9698 44.2843 41.5659 44.5313 42.1875 44.5313Z" fill="#E1E1E1" fill-opacity="0.7"/>
</svg>
